<svg width="309" height="160" viewBox="0 0 309 160" fill="none" xmlns="http://www.w3.org/2000/svg"><path fill-rule="evenodd" clip-rule="evenodd" d="M90.817 32.378c-1.2 2.864-2.798 5.23-4.797 7.095a19.372 19.372 0 01-6.795 4.147c-2.532.9-5.096 1.349-7.695 1.349h-6.895v25.782h-15.69V0h21.986c2.531 0 5.08.366 7.645 1.1a19.55 19.55 0 016.995 3.647c2.098 1.699 3.797 3.98 5.096 6.845 1.3 2.865 1.949 6.396 1.949 10.593 0 3.93-.6 7.328-1.799 10.193zm-15.49-16.789c-1.532-1.399-3.397-2.098-5.596-2.098h-5.096v18.487h5.096c2.199 0 4.064-.816 5.596-2.449 1.533-1.632 2.299-3.98 2.299-7.045 0-3.198-.766-5.496-2.299-6.895zm25.784 55.162V0H117.2v70.751h-16.089zm58.858 0l-9.793-23.384-9.694 23.384h-16.688l17.388-37.074L125.193 0h16.688l8.694 21.485L159.369 0h16.389l-16.089 33.577 17.588 37.174h-17.288zm23.783 0V0h16.089v70.751h-16.089zm59.659 0h-20.286L206.037 0h18.088l9.593 51.764h.2L243.411 0h17.388l-17.388 70.751zM16.089 101.84v14.39h16.888v13.69H16.19v28.181H0V87.35h34.476v14.49H16.09zm54.863 56.261l-2.898-12.891h-15.89l-2.897 12.891h-15.99L50.467 87.35h20.086L87.64 158.1H70.952zM60.36 102.74h-.4l-5.995 30.079h12.091L60.36 102.74zm63.361 55.361l-16.389-43.07h-.299l.399 43.07h-14.29V87.35h17.588l16.289 43.67h.3l-.3-43.67h13.79V158.1h-17.088zm70.216-10.643c-1.232 2.565-2.848 4.63-4.846 6.196a19.236 19.236 0 01-6.746 3.398 27.878 27.878 0 01-7.544 1.049h-23.484V87.35h21.185c2.199 0 4.53.233 6.995.7 2.465.466 4.714 1.348 6.746 2.648 2.032 1.299 3.731 3.147 5.096 5.546 1.366 2.398 2.049 5.496 2.049 9.293 0 4.197-.85 7.545-2.548 10.043-1.699 2.499-3.781 4.314-6.246 5.447 1.332.533 2.665 1.132 3.997 1.998 1.333.866 2.532 1.982 3.598 3.348 1.066 1.366 1.932 3.014 2.598 4.946.666 1.932.999 4.131.999 6.596 0 3.797-.616 6.978-1.849 9.543zM177 102.34c-1.533-1.133-3.331-1.699-5.397-1.699h-5.396v15.289h5.496c1.932 0 3.681-.599 5.247-1.799 1.565-1.199 2.348-3.197 2.348-5.995 0-2.732-.766-4.664-2.298-5.796zm2.848 30.029c-.5-1.099-1.166-1.998-1.999-2.698a8.253 8.253 0 00-2.798-1.549 9.897 9.897 0 00-3.048-.499h-5.796v17.188h5.996c2.332 0 4.314-.7 5.946-2.099 1.632-1.399 2.448-3.497 2.448-6.295 0-1.599-.25-2.948-.749-4.048zm73.315 5.496c-1.266 4.63-3.065 8.578-5.396 11.842-2.332 3.264-5.18 5.796-8.545 7.595-3.364 1.799-7.145 2.698-11.342 2.698-4.197 0-7.978-.899-11.342-2.698-3.364-1.799-6.212-4.331-8.544-7.595-2.332-3.264-4.13-7.212-5.396-11.842-1.266-4.63-1.899-9.743-1.899-15.339s.616-10.676 1.849-15.24c1.232-4.563 3.014-8.46 5.346-11.692 2.332-3.23 5.18-5.729 8.544-7.494 3.365-1.766 7.179-2.649 11.442-2.649 4.197 0 7.978.883 11.342 2.649 3.365 1.765 6.213 4.263 8.545 7.494 2.331 3.232 4.13 7.129 5.396 11.692 1.266 4.564 1.899 9.644 1.899 15.24s-.633 10.709-1.899 15.339zm-15.188-23.884c-.466-2.631-1.149-4.913-2.048-6.845-.9-1.932-2.016-3.447-3.348-4.547-1.332-1.099-2.898-1.649-4.697-1.649s-3.381.55-4.746 1.649c-1.366 1.1-2.499 2.615-3.398 4.547-.9 1.932-1.566 4.214-1.999 6.845-.433 2.632-.649 5.48-.649 8.544 0 3.065.216 5.93.649 8.595.433 2.664 1.099 4.963 1.999 6.895.899 1.932 2.032 3.464 3.398 4.597 1.365 1.132 2.947 1.698 4.746 1.698 1.799 0 3.365-.566 4.697-1.698 1.332-1.133 2.448-2.665 3.348-4.597.899-1.932 1.582-4.231 2.048-6.895.467-2.665.7-5.53.7-8.595 0-3.064-.233-5.912-.7-8.544zm53.174 44.12l-9.793-23.384-9.693 23.384h-16.689l17.388-37.074-15.989-33.677h16.689l8.694 21.485 8.794-21.485h16.389l-16.089 33.577 17.588 37.174h-17.289z" fill="#2C333C"/></svg>