<svg xmlns="http://www.w3.org/2000/svg" viewBox="10 55 146.1 20"><path fill="#2C333C" d="M21.2 64.2c-.3.8-.8 1.4-1.3 1.9s-1.1.9-1.8 1.1c-.7.2-1.4.4-2.1.4h-1.8v6.9H10v-19h5.9c.7 0 1.4.1 2.1.3.7.2 1.3.5 1.9 1 .6.5 1 1.1 1.4 1.8s.5 1.7.5 2.8c-.1 1.1-.2 2-.6 2.8zm-4.1-4.5c-.4-.4-.9-.6-1.5-.6h-1.4v5h1.4c.6 0 1.1-.2 1.5-.7.4-.4.6-1.1.6-1.9 0-.8-.2-1.4-.6-1.8zM24 74.5v-19h4.3v19H24zm15.8 0l-2.6-6.3-2.6 6.3h-4.5l4.7-9.9-4.3-9H35l2.3 5.8 2.4-5.8H44l-4.3 9 4.7 10h-4.6zm6.4 0v-19h4.3v19h-4.3zm16 0h-5.4l-4.6-19H57l2.6 13.9h.1l2.5-13.9h4.7l-4.7 19zm15.5-15.1v3.9h4.5V67h-4.5v7.6h-4.3v-19h9.2v3.9h-4.9zm14.7 15.1l-.8-3.5h-4.3l-.8 3.5h-4.3l4.6-19h5.4l4.6 19h-4.4zm-2.8-14.9h-.1l-1.6 8.1h3.2l-1.5-8.1zm17 14.9l-4.4-11.6h-.1l.1 11.6h-3.8v-19h4.7l4.4 11.7h.1l-.1-11.7h3.7v19h-4.6zm18.8-2.9c-.3.7-.8 1.2-1.3 1.7s-1.1.7-1.8.9-1.3.3-2 .3H114v-19h5.7c.6 0 1.2.1 1.9.2s1.3.4 1.8.7c.5.3 1 .8 1.4 1.5.4.6.5 1.5.5 2.5 0 1.1-.2 2-.7 2.7-.5.7-1 1.2-1.7 1.5.4.1.7.3 1.1.5s.7.5 1 .9.5.8.7 1.3c.2.5.3 1.1.3 1.8-.1 1-.3 1.8-.6 2.5zm-4.5-12.1c-.4-.3-.9-.5-1.4-.5H118v4.1h1.5c.5 0 1-.2 1.4-.5.4-.3.6-.9.6-1.6 0-.6-.2-1.2-.6-1.5zm.7 8.1c-.1-.3-.3-.5-.5-.7s-.5-.3-.8-.4c-.3-.1-.5-.1-.8-.1H118V71h1.6c.6 0 1.2-.2 1.6-.6s.7-.9.7-1.7c-.1-.5-.1-.8-.3-1.1zm19.7 1.5c-.3 1.2-.8 2.3-1.4 3.2-.6.9-1.4 1.6-2.3 2s-1.9.7-3 .7-2.1-.2-3-.7c-.9-.5-1.7-1.2-2.3-2-.6-.9-1.1-1.9-1.4-3.2a17.045 17.045 0 010-8.2c.3-1.2.8-2.3 1.4-3.1.6-.9 1.4-1.5 2.3-2 .9-.5 1.9-.7 3.1-.7 1.1 0 2.1.2 3 .7s1.7 1.1 2.3 2c.6.9 1.1 1.9 1.4 3.1.3 1.2.5 2.6.5 4.1s-.3 2.8-.6 4.1zm-4.1-6.4c-.1-.7-.3-1.3-.5-1.8s-.5-.9-.9-1.2c-.4-.3-.8-.4-1.3-.4s-.9.1-1.3.4c-.4.3-.7.7-.9 1.2-.2.5-.4 1.1-.5 1.8-.1.7-.2 1.5-.2 2.3s.1 1.6.2 2.3c.1.7.3 1.3.5 1.8s.5.9.9 1.2c.4.3.8.5 1.3.5s.9-.2 1.3-.5.7-.7.9-1.2c.2-.5.4-1.1.5-1.8.1-.7.2-1.5.2-2.3s-.1-1.6-.2-2.3zm14.3 11.8l-2.6-6.3-2.6 6.3h-4.5l4.7-9.9-4.3-9h4.5l2.3 5.8 2.4-5.8h4.4l-4.3 9 4.7 10h-4.7z"/></svg>